<svg xmlns="http://www.w3.org/2000/svg" viewBox="0 0 256 256"><title>retail_card_zero_cost</title><g id="B08"><circle id="darkmodeMask" cx="128" cy="128" r="120" fill="#fff"/><g id="stripes"><rect x="37.71" y="35.66" width="41.88" height="138.49" fill="#e90a0a"/><rect x="132" y="44" width="11" height="177" fill="#0065b1"/><rect x="79.6" y="16" width="25.99" height="224" fill="#ff8600"/><rect x="105.54" y="55.26" width="26.61" height="155.35" fill="#ae0000"/><rect x="143" y="71.12" width="51.8" height="136.26" fill="#008520"/></g><g id="whiteFill"><polygon points="203.64 93 203.64 87.5 176.46 87.5 176.46 94.53 192.1 94.53 176.05 113.51 176.05 119.02 204.17 119.02 204.17 111.99 187.59 111.99 203.64 93" fill="#fff"/><polygon points="223.15 88.26 219.93 90.66 219.93 75.55 210.79 75.55 210.79 97.58 204.17 102.55 207.56 107.12 210.79 104.72 210.79 119.02 219.93 119.02 219.93 97.87 226.49 92.95 223.15 88.26" fill="#fff"/><path d="M128.28,79.45a56.58,56.58,0,0,0-18-1.23c-3.33.26-13.12,2.58-13.12,2.58-8.75,3.14-10.92,5.06-17.58,10V45.09l-45,19.33A6.7,6.7,0,0,0,31,73.23l16.39,38.22A6.73,6.73,0,0,0,56.19,115l8.37-3.59c-4.54,10.13-7.08,22.43-7.08,36.71,0,44.65,24.74,70,58,70,33.44,0,58-25.33,58-70C173.46,109.37,155,85.2,128.28,79.45ZM115.47,191.58c-15.46,0-26.29-12.75-26.29-43.49S100,104.6,115.47,104.6c15.66,0,26.48,12.76,26.48,43.49S131.13,191.58,115.47,191.58Z" fill="#fff"/></g><path id="blackStroke" d="M50.22,66.25a4,4,0,0,0-1.45,1A3.63,3.63,0,0,0,48,68.72a2.71,2.71,0,0,0-1.47-.45,3.52,3.52,0,0,0-1.63.31,3.85,3.85,0,0,0-1.42,1,3,3,0,0,0-.73,1.5l-.64-1.15-2.68,1.15.75,1.74.92-.4,2.61,6.07,2.26-1-1.69-3.91A2.43,2.43,0,0,1,44,71.87a1.72,1.72,0,0,1,1-1c1-.43,1.74,0,2.27,1.2l1.77,4.11,2.27-1-1.69-3.92a2.42,2.42,0,0,1-.2-1.73,1.77,1.77,0,0,1,1-1,1.48,1.48,0,0,1,1.3,0,2.32,2.32,0,0,1,1,1.23l1.77,4.11,2.27-1-1.92-4.47a3.86,3.86,0,0,0-2-2.22A3.49,3.49,0,0,0,50.22,66.25ZM61.87,87l-2.82-6.55h0a1.12,1.12,0,0,0-1.47-.59l-10.5,4.52a1.11,1.11,0,0,0-.6,1.44l2.82,6.55h0a1.12,1.12,0,0,0,1.47.59l10.5-4.52A1.12,1.12,0,0,0,61.87,87Zm-6.3-2.91,4.26-1.83m-12.56,5.4,4.26-1.83m5.38,1.39,4.26-1.83m-12.55,5.4,4.26-1.83M52.3,82.1c-1.15.5-1.29,2.8-.27,5.18s2.78,3.91,4,3.39,1.3-2.85.28-5.23S53.46,81.6,52.3,82.1Zm11.8,29.28L55.73,115a6.71,6.71,0,0,1-8.81-3.52L30.52,73.23A6.71,6.71,0,0,1,34,64.42l68-29.2a6.72,6.72,0,0,1,8.82,3.53L127.29,77a6.68,6.68,0,0,1,.54,2.49M187.13,112l16.05-19V87.5H176v7h15.64l-16,19V119h28.12v-7ZM226,93l-3.34-4.69-3.22,2.4V75.55h-9.14v22l-6.62,5,3.4,4.57,3.22-2.4V119h9.14V97.87ZM57,148.09c0-44.65,24.75-70,58-70,33.45,0,58,25.33,58,70s-24.54,70-58,70C81.77,218.07,57,192.74,57,148.09Zm84.48,0c0-30.73-10.83-43.49-26.49-43.49-15.46,0-26.29,12.76-26.29,43.49S99.55,191.58,115,191.58C130.67,191.58,141.5,178.83,141.5,148.09Z" fill="none" stroke="#26221e" stroke-miterlimit="10" stroke-width="0.6"/></g></svg>